<svg width="0" height="0" class="hidden">
    <symbol viewBox="0 0 51 51" fill="none" preserveAspectRatio="xMidYMid slice" 
        xmlns="http://www.w3.org/2000/svg" id="email">
        <g filter="url(#filter0_dd)">
            <rect x="7" y="7" width="36" height="36" rx="18" fill="#fff"></rect>
            <rect x="7" y="7" width="36" height="36" rx="18" fill="url(#paint0_linear)" fill-opacity=".4"></rect>
            <rect x="7.25" y="7.25" width="35.5" height="35.5" rx="17.75" stroke="#fff" stroke-opacity=".4" stroke-width=".5"></rect>
        </g>
        <path d="M30.25 19.5h-10.5A1.752 1.752 0 0 0 18 21.25v7.5a1.752 1.752 0 0 0 1.75 1.75h10.5A1.752 1.752 0 0 0 32 28.75v-7.5a1.752 1.752 0 0 0-1.75-1.75zm-.443 2.895l-4.5 3.5a.5.5 0 0 1-.614 0l-4.5-3.5a.5.5 0 1 1 .614-.79L25 24.867l4.193-3.262a.5.5 0 0 1 .614.79z" fill="#C0BDCB"></path>
        <defs>
            <filter id="filter0_dd" x="0" y="0" width="51" height="51" filterUnits="userSpaceOnUse" color-interpolation-filters="sRGB">
                <feFlood flood-opacity="0" result="BackgroundImageFix"></feFlood>
                <feColorMatrix in="SourceAlpha" values="0 0 0 0 0 0 0 0 0 0 0 0 0 0 0 0 0 0 127 0"></feColorMatrix>
                <feOffset dx="3" dy="3"></feOffset>
                <feGaussianBlur stdDeviation="2.5"></feGaussianBlur>
                <feColorMatrix values="0 0 0 0 0.67451 0 0 0 0 0.666667 0 0 0 0 0.713726 0 0 0 0.6 0"></feColorMatrix>
                <feBlend in2="BackgroundImageFix" result="effect1_dropShadow"></feBlend>
                <feColorMatrix in="SourceAlpha" values="0 0 0 0 0 0 0 0 0 0 0 0 0 0 0 0 0 0 127 0"></feColorMatrix>
                <feOffset dx="-2" dy="-2"></feOffset>
                <feGaussianBlur stdDeviation="2.5"></feGaussianBlur>
                <feColorMatrix values="0 0 0 0 0.929412 0 0 0 0 0.937255 0 0 0 0 0.972549 0 0 0 0.5 0"></feColorMatrix>
                <feBlend in2="effect1_dropShadow" result="effect2_dropShadow"></feBlend>
                <feBlend in="SourceGraphic" in2="effect2_dropShadow" result="shape"></feBlend>
            </filter>
            <linearGradient id="paint0_linear" x1="-8.126" y1="25.002" x2="24.531" y2="58.084" gradientUnits="userSpaceOnUse">
                <stop></stop>
                <stop offset="1" stop-color="#fff"></stop>
            </linearGradient>
        </defs>
    </symbol>
    <symbol viewBox="0 0 51 51" fill="none" 
        xmlns="http://www.w3.org/2000/svg" id="tel">
        <g filter="url(#filter0_dd)">
            <rect x="7" y="7" width="36" height="36" rx="18" fill="#fff"></rect>
            <rect x="7" y="7" width="36" height="36" rx="18" fill="url(#paint0_linear)" fill-opacity=".4"></rect>
            <rect x="7.25" y="7.25" width="35.5" height="35.5" rx="17.75" stroke="#fff" stroke-opacity=".4" stroke-width=".5"></rect>
        </g>
        <path d="M26.077 26.076c-1.385 1.384-2.99 2.71-3.625 2.075-.908-.908-1.468-1.699-3.47-.09-2.002 1.609-.464 2.682.415 3.56 1.016 1.016 4.8.055 8.541-3.684 3.74-3.74 4.699-7.525 3.683-8.54-.88-.88-1.948-2.417-3.557-.415-1.61 2-.819 2.561.09 3.47.632.634-.692 2.239-2.077 3.624z" fill="#C0BDCB"></path>
        <defs>
            <filter id="filter0_dd" x="0" y="0" width="51" height="51" filterUnits="userSpaceOnUse" color-interpolation-filters="sRGB">
                <feFlood flood-opacity="0" result="BackgroundImageFix"></feFlood>
                <feColorMatrix in="SourceAlpha" values="0 0 0 0 0 0 0 0 0 0 0 0 0 0 0 0 0 0 127 0"></feColorMatrix>
                <feOffset dx="3" dy="3"></feOffset>
                <feGaussianBlur stdDeviation="2.5"></feGaussianBlur>
                <feColorMatrix values="0 0 0 0 0.67451 0 0 0 0 0.666667 0 0 0 0 0.713726 0 0 0 0.6 0"></feColorMatrix>
                <feBlend in2="BackgroundImageFix" result="effect1_dropShadow"></feBlend>
                <feColorMatrix in="SourceAlpha" values="0 0 0 0 0 0 0 0 0 0 0 0 0 0 0 0 0 0 127 0"></feColorMatrix>
                <feOffset dx="-2" dy="-2"></feOffset>
                <feGaussianBlur stdDeviation="2.5"></feGaussianBlur>
                <feColorMatrix values="0 0 0 0 0.929412 0 0 0 0 0.937255 0 0 0 0 0.972549 0 0 0 0.5 0"></feColorMatrix>
                <feBlend in2="effect1_dropShadow" result="effect2_dropShadow"></feBlend>
                <feBlend in="SourceGraphic" in2="effect2_dropShadow" result="shape"></feBlend>
            </filter>
            <linearGradient id="paint0_linear" x1="-8.126" y1="25.002" x2="24.531" y2="58.084" gradientUnits="userSpaceOnUse">
                <stop></stop>
                <stop offset="1" stop-color="#fff"></stop>
            </linearGradient>
        </defs>
    </symbol>
    <symbol viewBox="0 0 35 26" fill="none" 
        xmlns="http://www.w3.org/2000/svg" id="logoFormalist">
        <path fill-rule="evenodd" clip-rule="evenodd" d="M1.76733 0.210938H29.2078L34.4596 7.35513V23.4438H1.76733V0.210938ZM2.44301 0.886613V22.7681H33.784V7.57676L28.8659 0.886613H2.44301Z" fill="#B0C0F0"/>
        <path d="M0.337891 2.31641H27.2695L32.3545 9.23358V24.8736H0.337891V2.31641Z" fill="white"/>
        <path fill-rule="evenodd" clip-rule="evenodd" d="M0 1.97607H27.4404L32.6923 9.12027V25.2089H0V1.97607ZM0.675676 2.65175V24.5332H32.0166V9.3419L27.0985 2.65175H0.675676Z" fill="#B0C0F0"/>
        <path d="M2.76805 5.12638H6.872V6.34883H4.06036V7.67607H6.64497V8.89852H4.07782V11.4133H2.76805V5.12638Z" fill="#B0C0F0"/>
        <path d="M9.60164 9.53594C9.60164 9.78626 9.68023 9.98709 9.8374 10.1384C10.0004 10.284 10.2187 10.3567 10.4923 10.3567C10.7659 10.3567 10.9813 10.284 11.1384 10.1384C11.3014 9.98709 11.3829 9.78626 11.3829 9.53594V6.99499C11.3829 6.74468 11.3014 6.54675 11.1384 6.40122C10.9813 6.24987 10.7659 6.1742 10.4923 6.1742C10.2187 6.1742 10.0004 6.24987 9.8374 6.40122C9.68023 6.54675 9.60164 6.74468 9.60164 6.99499V9.53594ZM8.29187 6.99499C8.29187 6.69811 8.34426 6.43033 8.44904 6.19166C8.55383 5.95299 8.70227 5.74925 8.89437 5.58043C9.08647 5.4058 9.3164 5.27191 9.58418 5.17877C9.85778 5.08563 10.1605 5.03906 10.4923 5.03906C10.8241 5.03906 11.1239 5.08563 11.3917 5.17877C11.6653 5.27191 11.8981 5.4058 12.0902 5.58043C12.2823 5.74925 12.4307 5.95299 12.5355 6.19166C12.6403 6.43033 12.6927 6.69811 12.6927 6.99499V9.53594C12.6927 9.827 12.6374 10.0948 12.5268 10.3393C12.422 10.5779 12.2736 10.7846 12.0815 10.9592C11.8894 11.128 11.6565 11.2619 11.3829 11.3609C11.1152 11.454 10.8183 11.5006 10.4923 11.5006C10.1605 11.5006 9.85778 11.454 9.58418 11.3609C9.3164 11.2678 9.08647 11.1368 8.89437 10.968C8.70227 10.7933 8.55383 10.5867 8.44904 10.348C8.34426 10.1035 8.29187 9.83283 8.29187 9.53594V6.99499Z" fill="#B0C0F0"/>
        <path d="M14.1562 5.12638H16.2519C16.5953 5.12638 16.9038 5.17295 17.1774 5.26609C17.451 5.35341 17.6839 5.48147 17.876 5.65029C18.0681 5.81328 18.2165 6.01411 18.3213 6.25278C18.4261 6.48563 18.4785 6.7505 18.4785 7.04738C18.4785 7.45486 18.3795 7.80413 18.1816 8.0952C17.9837 8.38626 17.7101 8.60746 17.3608 8.75881L18.5658 11.4133H17.1687L16.1034 8.96838H15.4573V11.4133H14.1562V5.12638ZM15.4573 7.96422H16.2519C16.5371 7.96422 16.7612 7.88854 16.9242 7.73719C17.0872 7.58002 17.1687 7.37046 17.1687 7.1085C17.1687 6.8349 17.0843 6.61952 16.9155 6.46235C16.7525 6.29935 16.5313 6.21786 16.2519 6.21786H15.4573V7.96422Z" fill="#B0C0F0"/>
        <path d="M19.6539 11.4133V5.12638H21.1732L21.8106 7.02991C21.8339 7.09395 21.8514 7.16089 21.863 7.23075C21.8747 7.3006 21.8863 7.36463 21.8979 7.42285C21.9038 7.48688 21.9096 7.55091 21.9154 7.61495H21.9853C21.9911 7.55091 21.9998 7.48688 22.0115 7.42285C22.0231 7.36463 22.0347 7.3006 22.0464 7.23075C22.058 7.16089 22.0726 7.09395 22.09 7.02991L22.6576 5.12638H24.1944V11.4133H23.0505V7.57129C23.0505 7.40829 23.0564 7.2453 23.068 7.08231C23.0855 6.91931 23.1029 6.77087 23.1204 6.63698C23.1379 6.47399 23.1582 6.31973 23.1815 6.1742H23.0767C23.0476 6.31391 23.0214 6.4507 22.9981 6.58459C22.969 6.70102 22.9428 6.82326 22.9196 6.95133C22.8963 7.07357 22.8701 7.17836 22.841 7.26567L22.448 8.66276H21.4177L20.9811 7.26567C20.952 7.17836 20.9258 7.07357 20.9025 6.95133C20.8792 6.82908 20.8589 6.70975 20.8414 6.59332C20.8181 6.45944 20.7948 6.31973 20.7715 6.1742H20.658C20.6813 6.31973 20.7046 6.47399 20.7279 6.63698C20.7453 6.77087 20.7599 6.91931 20.7715 7.08231C20.789 7.2453 20.7977 7.40829 20.7977 7.57129V11.4133H19.6539Z" fill="#B0C0F0"/>
        <path d="M2.24414 21.2366L3.92065 14.9497H5.66701L7.30859 21.2366H5.98135L5.64955 19.7958H3.89445L3.56264 21.2366H2.24414ZM5.40506 18.7742L4.92481 16.7048C4.90734 16.6174 4.88988 16.5243 4.87242 16.4253C4.85495 16.3206 4.8404 16.2216 4.82876 16.1285C4.81711 16.0295 4.80547 15.9276 4.79383 15.8228H4.74144C4.7298 15.9276 4.71524 16.0295 4.69778 16.1285C4.68614 16.2216 4.67158 16.3206 4.65412 16.4253C4.64248 16.5243 4.62501 16.6174 4.60173 16.7048L4.13021 18.7742H5.40506Z" fill="#B0C0F0"/>
        <path fill-rule="evenodd" clip-rule="evenodd" d="M22.3935 15.0318C22.0778 15.0318 21.7976 15.0733 21.5511 15.1536C21.3084 15.2346 21.1054 15.3463 20.9391 15.4866C20.7733 15.6265 20.6441 15.7942 20.5505 15.9913C20.4635 16.1863 20.4187 16.4045 20.4187 16.6486C20.4187 17.1236 20.5524 17.5003 20.809 17.7935C21.0737 18.0835 21.4692 18.296 22.0141 18.4183C22.0142 18.4183 22.0141 18.4183 22.0141 18.4183L22.6775 18.5667C22.6775 18.5667 22.6775 18.5667 22.6775 18.5667C22.9161 18.6197 23.116 18.7259 23.2628 18.8939C23.4156 19.062 23.4923 19.2657 23.4923 19.4952C23.4923 19.7548 23.3956 19.9757 23.2008 20.1405L23.1977 20.1432C23.0013 20.3018 22.7326 20.3669 22.4197 20.3669C22.1097 20.3669 21.8433 20.3094 21.6436 20.1707C21.481 20.0578 21.3767 19.901 21.3257 19.712H20.37C20.3982 19.8865 20.4491 20.0458 20.5217 20.191C20.6206 20.3887 20.7553 20.5573 20.927 20.698C21.0993 20.8335 21.3085 20.943 21.5576 21.0244C21.8052 21.0995 22.0833 21.1382 22.3935 21.1382C22.7145 21.1382 22.9999 21.094 23.2517 21.0082C23.5068 20.9214 23.7188 20.8038 23.891 20.6577C24.0695 20.5055 24.2042 20.3288 24.2974 20.127C24.3905 19.92 24.4382 19.6899 24.4382 19.4341C24.4382 18.953 24.3015 18.5736 24.0392 18.2805L24.037 18.278C23.7781 17.9776 23.3891 17.7602 22.8512 17.6381C22.8511 17.6381 22.8512 17.6382 22.8512 17.6381L22.1532 17.4811C22.1531 17.4811 22.1533 17.4811 22.1532 17.4811C21.9201 17.4293 21.7231 17.3344 21.5806 17.1843L21.5775 17.1811C21.437 17.0258 21.3646 16.8398 21.3646 16.6312C21.3646 16.3926 21.457 16.1884 21.6363 16.0315L21.6391 16.0291C21.8272 15.871 22.0746 15.8031 22.3586 15.8031C22.628 15.8031 22.8646 15.8637 23.0505 16.0037C23.1996 16.1079 23.3004 16.2471 23.3523 16.4143H24.3108C24.243 16.0062 24.0617 15.6901 23.7717 15.4537L23.7706 15.4528C23.4391 15.1782 22.9864 15.0318 22.3935 15.0318ZM21.4378 14.8079C21.7266 14.7137 22.0459 14.668 22.3935 14.668C23.0461 14.668 23.5886 14.8299 24.0022 15.1721C24.4239 15.5162 24.6528 15.9928 24.6968 16.5827L24.7113 16.7782H23.0444L23.025 16.6181C23.0076 16.4746 22.9463 16.374 22.8401 16.3005L22.8368 16.2982L22.8336 16.2958C22.7289 16.2162 22.5767 16.1669 22.3586 16.1669C22.1314 16.1669 21.9774 16.2208 21.8745 16.3065C21.7754 16.3938 21.7285 16.4978 21.7285 16.6312C21.7285 16.7478 21.7661 16.8465 21.8458 16.9353C21.9245 17.0173 22.0474 17.0849 22.2322 17.1259L22.2326 17.126L22.9312 17.2832C23.5218 17.4172 23.9884 17.6651 24.3115 18.0392C24.6423 18.4095 24.802 18.8796 24.802 19.4341C24.802 19.7368 24.7452 20.0187 24.6289 20.2771L24.6281 20.2787C24.5119 20.5306 24.3441 20.7495 24.127 20.9346L24.1266 20.935C23.9147 21.1147 23.6611 21.2532 23.369 21.3527C23.0736 21.4532 22.7478 21.5021 22.3935 21.5021C22.0525 21.5021 21.7374 21.4594 21.4499 21.3719L21.4465 21.3709C21.1614 21.2779 20.9117 21.1492 20.7005 20.9828L20.6979 20.9807C20.486 20.8074 20.3184 20.5979 20.1963 20.3537C20.0737 20.1085 20.0042 19.837 19.9854 19.5417L19.973 19.3482H21.6402L21.6576 19.5108C21.6762 19.6852 21.744 19.7975 21.8511 19.8719C21.9657 19.9515 22.1476 20.0031 22.4197 20.0031C22.6877 20.0031 22.861 19.9466 22.9674 19.8614C23.0743 19.7703 23.1285 19.6539 23.1285 19.4952C23.1285 19.3529 23.0834 19.237 22.9927 19.1376L22.9897 19.1344C22.9038 19.0356 22.7783 18.9618 22.5986 18.9218L21.9347 18.7734C21.3395 18.6397 20.8679 18.3986 20.5389 18.0372L20.5366 18.0347C20.2118 17.6645 20.0549 17.1975 20.0549 16.6486C20.0549 16.358 20.1087 16.0878 20.2192 15.8409L20.2208 15.8373C20.3366 15.5926 20.4982 15.3826 20.7045 15.2086C20.9106 15.0347 21.1557 14.9019 21.4366 14.8083L21.4378 14.8079ZM8.98975 14.764H10.6633V19.8285H13.2392V21.4147H8.98975V14.764ZM9.35357 15.1278V21.0509H12.8754V20.1923H10.2995V15.1278H9.35357ZM14.531 14.764H18.8242V16.263H17.5144V19.9158H18.8242V21.4147H14.531V19.9158H15.8408V16.263H14.531V14.764ZM14.8949 15.1278V15.8992H16.2046V20.2796H14.8949V21.0509H18.4603V20.2796H17.1506V15.8992H18.4603V15.1278H14.8949ZM25.6136 14.764H30.6053V16.3503H28.9462V21.4147H27.2726V16.3503H25.6136V14.764ZM25.9774 15.1278V15.9865H27.6365V21.0509H28.5824V15.9865H30.2415V15.1278H25.9774Z" fill="#B0C0F0"/>
        <path d="M26.8965 9.48776V2.13281L32.4449 9.48776H26.8965Z" fill="#B0C0F0"/>

    </symbol>
    <symbol viewBox="0 0 51 51" fill="none" 
        xmlns="http://www.w3.org/2000/svg" id="coordinates">
        <g filter="url(#filter0_dd)">
            <rect x="7" y="7" width="36" height="36" rx="18" fill="white"/>
            <rect x="7" y="7" width="36" height="36" rx="18" fill="url(#paint0_linear)" fill-opacity="0.4" style="mix-blend-mode:soft-light"/>
            <rect x="7.25" y="7.25" width="35.5" height="35.5" rx="17.75" stroke="white" stroke-opacity="0.4" stroke-width="0.5"/>
        </g>
        <path d="M24.957 17.0028C24.9311 17.0075 24.9054 17.0138 24.8803 17.0218C24.7416 17.0529 24.618 17.1312 24.5305 17.2432C24.443 17.3553 24.3971 17.4942 24.4005 17.6364V18.2896C21.1677 18.5828 18.5897 21.162 18.2961 24.3964H17.6438C17.6246 24.3955 17.6053 24.3955 17.5861 24.3964C17.4231 24.404 17.27 24.4761 17.1602 24.5968C17.0504 24.7174 16.993 24.8768 17.0007 25.0398C17.0083 25.2028 17.0804 25.356 17.201 25.4659C17.3216 25.5757 17.4809 25.6331 17.6438 25.6255H18.2967C18.5897 28.8598 21.1677 31.4391 24.4005 31.7328V32.3855C24.4005 32.5484 24.4652 32.7048 24.5804 32.82C24.6956 32.9353 24.8519 33 25.0148 33C25.1777 33 25.3339 32.9353 25.4491 32.82C25.5643 32.7048 25.629 32.5484 25.629 32.3855V31.7322C28.8618 31.4391 31.4398 28.8598 31.7334 25.6255H32.3858C32.5487 25.6255 32.7049 25.5607 32.8201 25.4455C32.9353 25.3302 33 25.1739 33 25.0109C33 24.8479 32.9353 24.6916 32.8201 24.5764C32.7049 24.4611 32.5487 24.3964 32.3858 24.3964H31.7328C31.4398 21.162 28.8624 18.5828 25.629 18.289V17.6364C25.6321 17.549 25.6165 17.4619 25.5833 17.381C25.5501 17.3001 25.5 17.2273 25.4364 17.1673C25.3728 17.1073 25.2972 17.0616 25.2145 17.0333C25.1318 17.0049 25.044 16.9945 24.957 17.0028ZM24.4005 20.1326V20.7091C24.4005 20.8721 24.4652 21.0284 24.5804 21.1436C24.6956 21.2589 24.8519 21.3236 25.0148 21.3236C25.1777 21.3236 25.3339 21.2589 25.4491 21.1436C25.5643 21.0284 25.629 20.8721 25.629 20.7091V20.1326C26.7123 20.2676 27.7196 20.7602 28.4915 21.5325C29.2634 22.3048 29.7558 23.3126 29.8907 24.3964H29.3145C29.2953 24.3955 29.276 24.3955 29.2568 24.3964C29.0939 24.404 28.9407 24.4761 28.8309 24.5968C28.7211 24.7174 28.6637 24.8768 28.6714 25.0398C28.6791 25.2028 28.7511 25.356 28.8717 25.4659C28.9923 25.5757 29.1516 25.6331 29.3145 25.6255H29.8907C29.7558 26.7092 29.2634 27.7171 28.4915 28.4893C27.7196 29.2616 26.7123 29.7542 25.629 29.8892V29.3127C25.6313 29.2193 25.6123 29.1267 25.5734 29.0417C25.5345 28.9568 25.4767 28.8819 25.4045 28.8226C25.3323 28.7634 25.2476 28.7214 25.1568 28.6998C25.0659 28.6783 24.9714 28.6777 24.8803 28.6982C24.7416 28.7293 24.618 28.8075 24.5305 28.9196C24.443 29.0316 24.3971 29.1706 24.4005 29.3127V29.8892C23.3173 29.7542 22.3099 29.2616 21.538 28.4893C20.7661 27.7171 20.2738 26.7092 20.1389 25.6255H20.715C20.8779 25.6255 21.0342 25.5607 21.1494 25.4455C21.2646 25.3302 21.3293 25.1739 21.3293 25.0109C21.3293 24.8479 21.2646 24.6916 21.1494 24.5764C21.0342 24.4611 20.8779 24.3964 20.715 24.3964H20.1389C20.2738 23.3126 20.7661 22.3048 21.538 21.5325C22.3099 20.7602 23.3173 20.2676 24.4005 20.1326Z" fill="#C0BDCB"/>
        <defs>
            <filter id="filter0_dd" x="0" y="0" width="51" height="51" filterUnits="userSpaceOnUse" color-interpolation-filters="sRGB">
                <feFlood flood-opacity="0" result="BackgroundImageFix"/>
                <feColorMatrix in="SourceAlpha" type="matrix" values="0 0 0 0 0 0 0 0 0 0 0 0 0 0 0 0 0 0 127 0"/>
                <feOffset dx="3" dy="3"/>
                <feGaussianBlur stdDeviation="2.5"/>
                <feColorMatrix type="matrix" values="0 0 0 0 0.67451 0 0 0 0 0.666667 0 0 0 0 0.713726 0 0 0 0.6 0"/>
                <feBlend mode="normal" in2="BackgroundImageFix" result="effect1_dropShadow"/>
                <feColorMatrix in="SourceAlpha" type="matrix" values="0 0 0 0 0 0 0 0 0 0 0 0 0 0 0 0 0 0 127 0"/>
                <feOffset dx="-2" dy="-2"/>
                <feGaussianBlur stdDeviation="2.5"/>
                <feColorMatrix type="matrix" values="0 0 0 0 0.929412 0 0 0 0 0.937255 0 0 0 0 0.972549 0 0 0 0.5 0"/>
                <feBlend mode="normal" in2="effect1_dropShadow" result="effect2_dropShadow"/>
                <feBlend mode="normal" in="SourceGraphic" in2="effect2_dropShadow" result="shape"/>
            </filter>
            <linearGradient id="paint0_linear" x1="-8.12573" y1="25.0018" x2="24.5312" y2="58.0837" gradientUnits="userSpaceOnUse">
                <stop/>
                <stop offset="1" stop-color="white"/>
            </linearGradient>
        </defs>
    </symbol>

    <symbol viewBox="0 0 51 51" fill="none" 
        xmlns="http://www.w3.org/2000/svg" id="calendar">
        <g filter="url(#filter0_dd)">
            <rect x="7" y="7" width="36" height="36" rx="18" fill="white"/>
            <rect x="7" y="7" width="36" height="36" rx="18" fill="url(#paint0_linear)" fill-opacity="0.4" style="mix-blend-mode:soft-light"/>
            <rect x="7.25" y="7.25" width="35.5" height="35.5" rx="17.75" stroke="white" stroke-opacity="0.4" stroke-width="0.5"/>
        </g>
        <path fill-rule="evenodd" clip-rule="evenodd" d="M18 21V31C18 31.2652 18.1054 31.5196 18.2929 31.7071C18.4804 31.8946 18.7348 32 19 32H31C31.2652 32 31.5196 31.8946 31.7071 31.7071C31.8946 31.5196 32 31.2652 32 31V21H18ZM19 18C18.4696 18 17.9609 18.2107 17.5858 18.5858C17.2107 18.9609 17 19.4696 17 20V31C17 31.5304 17.2107 32.0391 17.5858 32.4142C17.9609 32.7893 18.4696 33 19 33H31C31.5304 33 32.0391 32.7893 32.4142 32.4142C32.7893 32.0391 33 31.5304 33 31V20C33 19.4696 32.7893 18.9609 32.4142 18.5858C32.0391 18.2107 31.5304 18 31 18H19Z" fill="#C0BDCB"/>
        <path fill-rule="evenodd" clip-rule="evenodd" d="M20.5 17C20.6326 17 20.7598 17.0527 20.8536 17.1464C20.9473 17.2402 21 17.3674 21 17.5V18C21 18.1326 20.9473 18.2598 20.8536 18.3536C20.7598 18.4473 20.6326 18.5 20.5 18.5C20.3674 18.5 20.2402 18.4473 20.1464 18.3536C20.0527 18.2598 20 18.1326 20 18V17.5C20 17.3674 20.0527 17.2402 20.1464 17.1464C20.2402 17.0527 20.3674 17 20.5 17V17ZM29.5 17C29.6326 17 29.7598 17.0527 29.8536 17.1464C29.9473 17.2402 30 17.3674 30 17.5V18C30 18.1326 29.9473 18.2598 29.8536 18.3536C29.7598 18.4473 29.6326 18.5 29.5 18.5C29.3674 18.5 29.2402 18.4473 29.1464 18.3536C29.0527 18.2598 29 18.1326 29 18V17.5C29 17.3674 29.0527 17.2402 29.1464 17.1464C29.2402 17.0527 29.3674 17 29.5 17V17Z" fill="#C0BDCB"/>
        <defs>
            <filter id="filter0_dd" x="0" y="0" width="51" height="51" filterUnits="userSpaceOnUse" color-interpolation-filters="sRGB">
                <feFlood flood-opacity="0" result="BackgroundImageFix"/>
                <feColorMatrix in="SourceAlpha" type="matrix" values="0 0 0 0 0 0 0 0 0 0 0 0 0 0 0 0 0 0 127 0"/>
                <feOffset dx="3" dy="3"/>
                <feGaussianBlur stdDeviation="2.5"/>
                <feColorMatrix type="matrix" values="0 0 0 0 0.67451 0 0 0 0 0.666667 0 0 0 0 0.713726 0 0 0 0.6 0"/>
                <feBlend mode="normal" in2="BackgroundImageFix" result="effect1_dropShadow"/>
                <feColorMatrix in="SourceAlpha" type="matrix" values="0 0 0 0 0 0 0 0 0 0 0 0 0 0 0 0 0 0 127 0"/>
                <feOffset dx="-2" dy="-2"/>
                <feGaussianBlur stdDeviation="2.5"/>
                <feColorMatrix type="matrix" values="0 0 0 0 0.929412 0 0 0 0 0.937255 0 0 0 0 0.972549 0 0 0 0.5 0"/>
                <feBlend mode="normal" in2="effect1_dropShadow" result="effect2_dropShadow"/>
                <feBlend mode="normal" in="SourceGraphic" in2="effect2_dropShadow" result="shape"/>
            </filter>
            <linearGradient id="paint0_linear" x1="-8.12573" y1="25.0018" x2="24.5312" y2="58.0837" gradientUnits="userSpaceOnUse">
                <stop/>
                <stop offset="1" stop-color="white"/>
            </linearGradient>
        </defs>
    </symbol>
</svg>