<svg width="51" height="51" viewBox="0 0 51 51" fill="none" 
    xmlns="http://www.w3.org/2000/svg">
    <g filter="url(#filter0_dd)">
        <rect x="7" y="7" width="36" height="36" rx="18" fill="white"/>
        <rect x="7" y="7" width="36" height="36" rx="18" fill="url(#paint0_linear)" fill-opacity="0.4" style="mix-blend-mode:soft-light"/>
        <rect x="7.25" y="7.25" width="35.5" height="35.5" rx="17.75" stroke="white" stroke-opacity="0.4" stroke-width="0.5"/>
    </g>
    <path fill-rule="evenodd" clip-rule="evenodd" d="M18 21V31C18 31.2652 18.1054 31.5196 18.2929 31.7071C18.4804 31.8946 18.7348 32 19 32H31C31.2652 32 31.5196 31.8946 31.7071 31.7071C31.8946 31.5196 32 31.2652 32 31V21H18ZM19 18C18.4696 18 17.9609 18.2107 17.5858 18.5858C17.2107 18.9609 17 19.4696 17 20V31C17 31.5304 17.2107 32.0391 17.5858 32.4142C17.9609 32.7893 18.4696 33 19 33H31C31.5304 33 32.0391 32.7893 32.4142 32.4142C32.7893 32.0391 33 31.5304 33 31V20C33 19.4696 32.7893 18.9609 32.4142 18.5858C32.0391 18.2107 31.5304 18 31 18H19Z" fill="#C0BDCB"/>
    <path fill-rule="evenodd" clip-rule="evenodd" d="M20.5 17C20.6326 17 20.7598 17.0527 20.8536 17.1464C20.9473 17.2402 21 17.3674 21 17.5V18C21 18.1326 20.9473 18.2598 20.8536 18.3536C20.7598 18.4473 20.6326 18.5 20.5 18.5C20.3674 18.5 20.2402 18.4473 20.1464 18.3536C20.0527 18.2598 20 18.1326 20 18V17.5C20 17.3674 20.0527 17.2402 20.1464 17.1464C20.2402 17.0527 20.3674 17 20.5 17V17ZM29.5 17C29.6326 17 29.7598 17.0527 29.8536 17.1464C29.9473 17.2402 30 17.3674 30 17.5V18C30 18.1326 29.9473 18.2598 29.8536 18.3536C29.7598 18.4473 29.6326 18.5 29.5 18.5C29.3674 18.5 29.2402 18.4473 29.1464 18.3536C29.0527 18.2598 29 18.1326 29 18V17.5C29 17.3674 29.0527 17.2402 29.1464 17.1464C29.2402 17.0527 29.3674 17 29.5 17V17Z" fill="#C0BDCB"/>
    <defs>
        <filter id="filter0_dd" x="0" y="0" width="51" height="51" filterUnits="userSpaceOnUse" color-interpolation-filters="sRGB">
            <feFlood flood-opacity="0" result="BackgroundImageFix"/>
            <feColorMatrix in="SourceAlpha" type="matrix" values="0 0 0 0 0 0 0 0 0 0 0 0 0 0 0 0 0 0 127 0"/>
            <feOffset dx="3" dy="3"/>
            <feGaussianBlur stdDeviation="2.5"/>
            <feColorMatrix type="matrix" values="0 0 0 0 0.67451 0 0 0 0 0.666667 0 0 0 0 0.713726 0 0 0 0.6 0"/>
            <feBlend mode="normal" in2="BackgroundImageFix" result="effect1_dropShadow"/>
            <feColorMatrix in="SourceAlpha" type="matrix" values="0 0 0 0 0 0 0 0 0 0 0 0 0 0 0 0 0 0 127 0"/>
            <feOffset dx="-2" dy="-2"/>
            <feGaussianBlur stdDeviation="2.5"/>
            <feColorMatrix type="matrix" values="0 0 0 0 0.929412 0 0 0 0 0.937255 0 0 0 0 0.972549 0 0 0 0.5 0"/>
            <feBlend mode="normal" in2="effect1_dropShadow" result="effect2_dropShadow"/>
            <feBlend mode="normal" in="SourceGraphic" in2="effect2_dropShadow" result="shape"/>
        </filter>
        <linearGradient id="paint0_linear" x1="-8.12573" y1="25.0018" x2="24.5312" y2="58.0837" gradientUnits="userSpaceOnUse">
            <stop/>
            <stop offset="1" stop-color="white"/>
        </linearGradient>
    </defs>
</svg>
