<svg width="51" height="51" viewBox="0 0 51 51" fill="none" 
    xmlns="http://www.w3.org/2000/svg">
    <g filter="url(#filter0_dd)">
        <rect x="7" y="7" width="36" height="36" rx="18" fill="white"/>
        <rect x="7" y="7" width="36" height="36" rx="18" fill="url(#paint0_linear)" fill-opacity="0.4" style="mix-blend-mode:soft-light"/>
        <rect x="7.25" y="7.25" width="35.5" height="35.5" rx="17.75" stroke="white" stroke-opacity="0.4" stroke-width="0.5"/>
    </g>
    <path d="M24.957 17.0028C24.9311 17.0075 24.9054 17.0138 24.8803 17.0218C24.7416 17.0529 24.618 17.1312 24.5305 17.2432C24.443 17.3553 24.3971 17.4942 24.4005 17.6364V18.2896C21.1677 18.5828 18.5897 21.162 18.2961 24.3964H17.6438C17.6246 24.3955 17.6053 24.3955 17.5861 24.3964C17.4231 24.404 17.27 24.4761 17.1602 24.5968C17.0504 24.7174 16.993 24.8768 17.0007 25.0398C17.0083 25.2028 17.0804 25.356 17.201 25.4659C17.3216 25.5757 17.4809 25.6331 17.6438 25.6255H18.2967C18.5897 28.8598 21.1677 31.4391 24.4005 31.7328V32.3855C24.4005 32.5484 24.4652 32.7048 24.5804 32.82C24.6956 32.9353 24.8519 33 25.0148 33C25.1777 33 25.3339 32.9353 25.4491 32.82C25.5643 32.7048 25.629 32.5484 25.629 32.3855V31.7322C28.8618 31.4391 31.4398 28.8598 31.7334 25.6255H32.3858C32.5487 25.6255 32.7049 25.5607 32.8201 25.4455C32.9353 25.3302 33 25.1739 33 25.0109C33 24.8479 32.9353 24.6916 32.8201 24.5764C32.7049 24.4611 32.5487 24.3964 32.3858 24.3964H31.7328C31.4398 21.162 28.8624 18.5828 25.629 18.289V17.6364C25.6321 17.549 25.6165 17.4619 25.5833 17.381C25.5501 17.3001 25.5 17.2273 25.4364 17.1673C25.3728 17.1073 25.2972 17.0616 25.2145 17.0333C25.1318 17.0049 25.044 16.9945 24.957 17.0028ZM24.4005 20.1326V20.7091C24.4005 20.8721 24.4652 21.0284 24.5804 21.1436C24.6956 21.2589 24.8519 21.3236 25.0148 21.3236C25.1777 21.3236 25.3339 21.2589 25.4491 21.1436C25.5643 21.0284 25.629 20.8721 25.629 20.7091V20.1326C26.7123 20.2676 27.7196 20.7602 28.4915 21.5325C29.2634 22.3048 29.7558 23.3126 29.8907 24.3964H29.3145C29.2953 24.3955 29.276 24.3955 29.2568 24.3964C29.0939 24.404 28.9407 24.4761 28.8309 24.5968C28.7211 24.7174 28.6637 24.8768 28.6714 25.0398C28.6791 25.2028 28.7511 25.356 28.8717 25.4659C28.9923 25.5757 29.1516 25.6331 29.3145 25.6255H29.8907C29.7558 26.7092 29.2634 27.7171 28.4915 28.4893C27.7196 29.2616 26.7123 29.7542 25.629 29.8892V29.3127C25.6313 29.2193 25.6123 29.1267 25.5734 29.0417C25.5345 28.9568 25.4767 28.8819 25.4045 28.8226C25.3323 28.7634 25.2476 28.7214 25.1568 28.6998C25.0659 28.6783 24.9714 28.6777 24.8803 28.6982C24.7416 28.7293 24.618 28.8075 24.5305 28.9196C24.443 29.0316 24.3971 29.1706 24.4005 29.3127V29.8892C23.3173 29.7542 22.3099 29.2616 21.538 28.4893C20.7661 27.7171 20.2738 26.7092 20.1389 25.6255H20.715C20.8779 25.6255 21.0342 25.5607 21.1494 25.4455C21.2646 25.3302 21.3293 25.1739 21.3293 25.0109C21.3293 24.8479 21.2646 24.6916 21.1494 24.5764C21.0342 24.4611 20.8779 24.3964 20.715 24.3964H20.1389C20.2738 23.3126 20.7661 22.3048 21.538 21.5325C22.3099 20.7602 23.3173 20.2676 24.4005 20.1326Z" fill="#C0BDCB"/>
    <defs>
        <filter id="filter0_dd" x="0" y="0" width="51" height="51" filterUnits="userSpaceOnUse" color-interpolation-filters="sRGB">
            <feFlood flood-opacity="0" result="BackgroundImageFix"/>
            <feColorMatrix in="SourceAlpha" type="matrix" values="0 0 0 0 0 0 0 0 0 0 0 0 0 0 0 0 0 0 127 0"/>
            <feOffset dx="3" dy="3"/>
            <feGaussianBlur stdDeviation="2.5"/>
            <feColorMatrix type="matrix" values="0 0 0 0 0.67451 0 0 0 0 0.666667 0 0 0 0 0.713726 0 0 0 0.6 0"/>
            <feBlend mode="normal" in2="BackgroundImageFix" result="effect1_dropShadow"/>
            <feColorMatrix in="SourceAlpha" type="matrix" values="0 0 0 0 0 0 0 0 0 0 0 0 0 0 0 0 0 0 127 0"/>
            <feOffset dx="-2" dy="-2"/>
            <feGaussianBlur stdDeviation="2.5"/>
            <feColorMatrix type="matrix" values="0 0 0 0 0.929412 0 0 0 0 0.937255 0 0 0 0 0.972549 0 0 0 0.5 0"/>
            <feBlend mode="normal" in2="effect1_dropShadow" result="effect2_dropShadow"/>
            <feBlend mode="normal" in="SourceGraphic" in2="effect2_dropShadow" result="shape"/>
        </filter>
        <linearGradient id="paint0_linear" x1="-8.12573" y1="25.0018" x2="24.5312" y2="58.0837" gradientUnits="userSpaceOnUse">
            <stop/>
            <stop offset="1" stop-color="white"/>
        </linearGradient>
    </defs>
</svg>
