<svg width="51" height="51" viewBox="0 0 51 51" fill="none" xmlns="http://www.w3.org/2000/svg">
<g filter="url(#filter0_dd)">
<rect x="7" y="7" width="36" height="36" rx="18" fill="white"/>
<rect x="7" y="7" width="36" height="36" rx="18" fill="url(#paint0_linear)" fill-opacity="0.4" style="mix-blend-mode:soft-light"/>
<rect x="7.25" y="7.25" width="35.5" height="35.5" rx="17.75" stroke="white" stroke-opacity="0.4" stroke-width="0.5"/>
</g>
<path d="M30.25 19.5H19.75C19.286 19.5005 18.8412 19.685 18.5131 20.0131C18.185 20.3412 18.0005 20.786 18 21.25V28.75C18.0005 29.214 18.185 29.6588 18.5131 29.9869C18.8412 30.315 19.286 30.4995 19.75 30.5H30.25C30.714 30.4995 31.1588 30.315 31.4869 29.9869C31.815 29.6588 31.9995 29.214 32 28.75V21.25C31.9995 20.786 31.815 20.3412 31.4869 20.0131C31.1588 19.685 30.714 19.5005 30.25 19.5ZM29.8069 22.3947L25.3069 25.8947C25.2191 25.9629 25.1111 25.9999 25 25.9999C24.8889 25.9999 24.7809 25.9629 24.6931 25.8947L20.1931 22.3947C20.1403 22.3548 20.0958 22.3047 20.0625 22.2475C20.0291 22.1902 20.0075 22.1269 19.9988 22.0613C19.9901 21.9956 19.9945 21.9288 20.0119 21.8649C20.0292 21.8009 20.0591 21.7411 20.0997 21.6888C20.1404 21.6365 20.191 21.5928 20.2487 21.5602C20.3064 21.5277 20.37 21.5069 20.4358 21.4991C20.5016 21.4914 20.5683 21.4968 20.632 21.515C20.6957 21.5332 20.7551 21.5639 20.8069 21.6053L25 24.8666L29.1931 21.6053C29.298 21.5261 29.4298 21.4914 29.56 21.5086C29.6903 21.5259 29.8085 21.5937 29.8892 21.6974C29.9698 21.8011 30.0064 21.9324 29.991 22.0629C29.9756 22.1934 29.9095 22.3126 29.8069 22.3947Z" fill="#C0BDCB"/>
<defs>
<filter id="filter0_dd" x="0" y="0" width="51" height="51" filterUnits="userSpaceOnUse" color-interpolation-filters="sRGB">
<feFlood flood-opacity="0" result="BackgroundImageFix"/>
<feColorMatrix in="SourceAlpha" type="matrix" values="0 0 0 0 0 0 0 0 0 0 0 0 0 0 0 0 0 0 127 0"/>
<feOffset dx="3" dy="3"/>
<feGaussianBlur stdDeviation="2.5"/>
<feColorMatrix type="matrix" values="0 0 0 0 0.67451 0 0 0 0 0.666667 0 0 0 0 0.713726 0 0 0 0.6 0"/>
<feBlend mode="normal" in2="BackgroundImageFix" result="effect1_dropShadow"/>
<feColorMatrix in="SourceAlpha" type="matrix" values="0 0 0 0 0 0 0 0 0 0 0 0 0 0 0 0 0 0 127 0"/>
<feOffset dx="-2" dy="-2"/>
<feGaussianBlur stdDeviation="2.5"/>
<feColorMatrix type="matrix" values="0 0 0 0 0.929412 0 0 0 0 0.937255 0 0 0 0 0.972549 0 0 0 0.5 0"/>
<feBlend mode="normal" in2="effect1_dropShadow" result="effect2_dropShadow"/>
<feBlend mode="normal" in="SourceGraphic" in2="effect2_dropShadow" result="shape"/>
</filter>
<linearGradient id="paint0_linear" x1="-8.12573" y1="25.0018" x2="24.5312" y2="58.0837" gradientUnits="userSpaceOnUse">
<stop/>
<stop offset="1" stop-color="white"/>
</linearGradient>
</defs>
</svg>
