<svg width="35" height="26" viewBox="0 0 35 26" fill="none" 
    xmlns="http://www.w3.org/2000/svg">
    <path fill-rule="evenodd" clip-rule="evenodd" d="M1.76733 0.210938H29.2078L34.4596 7.35513V23.4438H1.76733V0.210938ZM2.44301 0.886613V22.7681H33.784V7.57676L28.8659 0.886613H2.44301Z" fill="#B0C0F0"/>
    <path d="M0.337891 2.31641H27.2695L32.3545 9.23358V24.8736H0.337891V2.31641Z" fill="white"/>
    <path fill-rule="evenodd" clip-rule="evenodd" d="M0 1.97607H27.4404L32.6923 9.12027V25.2089H0V1.97607ZM0.675676 2.65175V24.5332H32.0166V9.3419L27.0985 2.65175H0.675676Z" fill="#B0C0F0"/>
    <path d="M2.76805 5.12638H6.872V6.34883H4.06036V7.67607H6.64497V8.89852H4.07782V11.4133H2.76805V5.12638Z" fill="#B0C0F0"/>
    <path d="M9.60164 9.53594C9.60164 9.78626 9.68023 9.98709 9.8374 10.1384C10.0004 10.284 10.2187 10.3567 10.4923 10.3567C10.7659 10.3567 10.9813 10.284 11.1384 10.1384C11.3014 9.98709 11.3829 9.78626 11.3829 9.53594V6.99499C11.3829 6.74468 11.3014 6.54675 11.1384 6.40122C10.9813 6.24987 10.7659 6.1742 10.4923 6.1742C10.2187 6.1742 10.0004 6.24987 9.8374 6.40122C9.68023 6.54675 9.60164 6.74468 9.60164 6.99499V9.53594ZM8.29187 6.99499C8.29187 6.69811 8.34426 6.43033 8.44904 6.19166C8.55383 5.95299 8.70227 5.74925 8.89437 5.58043C9.08647 5.4058 9.3164 5.27191 9.58418 5.17877C9.85778 5.08563 10.1605 5.03906 10.4923 5.03906C10.8241 5.03906 11.1239 5.08563 11.3917 5.17877C11.6653 5.27191 11.8981 5.4058 12.0902 5.58043C12.2823 5.74925 12.4307 5.95299 12.5355 6.19166C12.6403 6.43033 12.6927 6.69811 12.6927 6.99499V9.53594C12.6927 9.827 12.6374 10.0948 12.5268 10.3393C12.422 10.5779 12.2736 10.7846 12.0815 10.9592C11.8894 11.128 11.6565 11.2619 11.3829 11.3609C11.1152 11.454 10.8183 11.5006 10.4923 11.5006C10.1605 11.5006 9.85778 11.454 9.58418 11.3609C9.3164 11.2678 9.08647 11.1368 8.89437 10.968C8.70227 10.7933 8.55383 10.5867 8.44904 10.348C8.34426 10.1035 8.29187 9.83283 8.29187 9.53594V6.99499Z" fill="#B0C0F0"/>
    <path d="M14.1562 5.12638H16.2519C16.5953 5.12638 16.9038 5.17295 17.1774 5.26609C17.451 5.35341 17.6839 5.48147 17.876 5.65029C18.0681 5.81328 18.2165 6.01411 18.3213 6.25278C18.4261 6.48563 18.4785 6.7505 18.4785 7.04738C18.4785 7.45486 18.3795 7.80413 18.1816 8.0952C17.9837 8.38626 17.7101 8.60746 17.3608 8.75881L18.5658 11.4133H17.1687L16.1034 8.96838H15.4573V11.4133H14.1562V5.12638ZM15.4573 7.96422H16.2519C16.5371 7.96422 16.7612 7.88854 16.9242 7.73719C17.0872 7.58002 17.1687 7.37046 17.1687 7.1085C17.1687 6.8349 17.0843 6.61952 16.9155 6.46235C16.7525 6.29935 16.5313 6.21786 16.2519 6.21786H15.4573V7.96422Z" fill="#B0C0F0"/>
    <path d="M19.6539 11.4133V5.12638H21.1732L21.8106 7.02991C21.8339 7.09395 21.8514 7.16089 21.863 7.23075C21.8747 7.3006 21.8863 7.36463 21.8979 7.42285C21.9038 7.48688 21.9096 7.55091 21.9154 7.61495H21.9853C21.9911 7.55091 21.9998 7.48688 22.0115 7.42285C22.0231 7.36463 22.0347 7.3006 22.0464 7.23075C22.058 7.16089 22.0726 7.09395 22.09 7.02991L22.6576 5.12638H24.1944V11.4133H23.0505V7.57129C23.0505 7.40829 23.0564 7.2453 23.068 7.08231C23.0855 6.91931 23.1029 6.77087 23.1204 6.63698C23.1379 6.47399 23.1582 6.31973 23.1815 6.1742H23.0767C23.0476 6.31391 23.0214 6.4507 22.9981 6.58459C22.969 6.70102 22.9428 6.82326 22.9196 6.95133C22.8963 7.07357 22.8701 7.17836 22.841 7.26567L22.448 8.66276H21.4177L20.9811 7.26567C20.952 7.17836 20.9258 7.07357 20.9025 6.95133C20.8792 6.82908 20.8589 6.70975 20.8414 6.59332C20.8181 6.45944 20.7948 6.31973 20.7715 6.1742H20.658C20.6813 6.31973 20.7046 6.47399 20.7279 6.63698C20.7453 6.77087 20.7599 6.91931 20.7715 7.08231C20.789 7.2453 20.7977 7.40829 20.7977 7.57129V11.4133H19.6539Z" fill="#B0C0F0"/>
    <path d="M2.24414 21.2366L3.92065 14.9497H5.66701L7.30859 21.2366H5.98135L5.64955 19.7958H3.89445L3.56264 21.2366H2.24414ZM5.40506 18.7742L4.92481 16.7048C4.90734 16.6174 4.88988 16.5243 4.87242 16.4253C4.85495 16.3206 4.8404 16.2216 4.82876 16.1285C4.81711 16.0295 4.80547 15.9276 4.79383 15.8228H4.74144C4.7298 15.9276 4.71524 16.0295 4.69778 16.1285C4.68614 16.2216 4.67158 16.3206 4.65412 16.4253C4.64248 16.5243 4.62501 16.6174 4.60173 16.7048L4.13021 18.7742H5.40506Z" fill="#B0C0F0"/>
    <path fill-rule="evenodd" clip-rule="evenodd" d="M22.3935 15.0318C22.0778 15.0318 21.7976 15.0733 21.5511 15.1536C21.3084 15.2346 21.1054 15.3463 20.9391 15.4866C20.7733 15.6265 20.6441 15.7942 20.5505 15.9913C20.4635 16.1863 20.4187 16.4045 20.4187 16.6486C20.4187 17.1236 20.5524 17.5003 20.809 17.7935C21.0737 18.0835 21.4692 18.296 22.0141 18.4183C22.0142 18.4183 22.0141 18.4183 22.0141 18.4183L22.6775 18.5667C22.6775 18.5667 22.6775 18.5667 22.6775 18.5667C22.9161 18.6197 23.116 18.7259 23.2628 18.8939C23.4156 19.062 23.4923 19.2657 23.4923 19.4952C23.4923 19.7548 23.3956 19.9757 23.2008 20.1405L23.1977 20.1432C23.0013 20.3018 22.7326 20.3669 22.4197 20.3669C22.1097 20.3669 21.8433 20.3094 21.6436 20.1707C21.481 20.0578 21.3767 19.901 21.3257 19.712H20.37C20.3982 19.8865 20.4491 20.0458 20.5217 20.191C20.6206 20.3887 20.7553 20.5573 20.927 20.698C21.0993 20.8335 21.3085 20.943 21.5576 21.0244C21.8052 21.0995 22.0833 21.1382 22.3935 21.1382C22.7145 21.1382 22.9999 21.094 23.2517 21.0082C23.5068 20.9214 23.7188 20.8038 23.891 20.6577C24.0695 20.5055 24.2042 20.3288 24.2974 20.127C24.3905 19.92 24.4382 19.6899 24.4382 19.4341C24.4382 18.953 24.3015 18.5736 24.0392 18.2805L24.037 18.278C23.7781 17.9776 23.3891 17.7602 22.8512 17.6381C22.8511 17.6381 22.8512 17.6382 22.8512 17.6381L22.1532 17.4811C22.1531 17.4811 22.1533 17.4811 22.1532 17.4811C21.9201 17.4293 21.7231 17.3344 21.5806 17.1843L21.5775 17.1811C21.437 17.0258 21.3646 16.8398 21.3646 16.6312C21.3646 16.3926 21.457 16.1884 21.6363 16.0315L21.6391 16.0291C21.8272 15.871 22.0746 15.8031 22.3586 15.8031C22.628 15.8031 22.8646 15.8637 23.0505 16.0037C23.1996 16.1079 23.3004 16.2471 23.3523 16.4143H24.3108C24.243 16.0062 24.0617 15.6901 23.7717 15.4537L23.7706 15.4528C23.4391 15.1782 22.9864 15.0318 22.3935 15.0318ZM21.4378 14.8079C21.7266 14.7137 22.0459 14.668 22.3935 14.668C23.0461 14.668 23.5886 14.8299 24.0022 15.1721C24.4239 15.5162 24.6528 15.9928 24.6968 16.5827L24.7113 16.7782H23.0444L23.025 16.6181C23.0076 16.4746 22.9463 16.374 22.8401 16.3005L22.8368 16.2982L22.8336 16.2958C22.7289 16.2162 22.5767 16.1669 22.3586 16.1669C22.1314 16.1669 21.9774 16.2208 21.8745 16.3065C21.7754 16.3938 21.7285 16.4978 21.7285 16.6312C21.7285 16.7478 21.7661 16.8465 21.8458 16.9353C21.9245 17.0173 22.0474 17.0849 22.2322 17.1259L22.2326 17.126L22.9312 17.2832C23.5218 17.4172 23.9884 17.6651 24.3115 18.0392C24.6423 18.4095 24.802 18.8796 24.802 19.4341C24.802 19.7368 24.7452 20.0187 24.6289 20.2771L24.6281 20.2787C24.5119 20.5306 24.3441 20.7495 24.127 20.9346L24.1266 20.935C23.9147 21.1147 23.6611 21.2532 23.369 21.3527C23.0736 21.4532 22.7478 21.5021 22.3935 21.5021C22.0525 21.5021 21.7374 21.4594 21.4499 21.3719L21.4465 21.3709C21.1614 21.2779 20.9117 21.1492 20.7005 20.9828L20.6979 20.9807C20.486 20.8074 20.3184 20.5979 20.1963 20.3537C20.0737 20.1085 20.0042 19.837 19.9854 19.5417L19.973 19.3482H21.6402L21.6576 19.5108C21.6762 19.6852 21.744 19.7975 21.8511 19.8719C21.9657 19.9515 22.1476 20.0031 22.4197 20.0031C22.6877 20.0031 22.861 19.9466 22.9674 19.8614C23.0743 19.7703 23.1285 19.6539 23.1285 19.4952C23.1285 19.3529 23.0834 19.237 22.9927 19.1376L22.9897 19.1344C22.9038 19.0356 22.7783 18.9618 22.5986 18.9218L21.9347 18.7734C21.3395 18.6397 20.8679 18.3986 20.5389 18.0372L20.5366 18.0347C20.2118 17.6645 20.0549 17.1975 20.0549 16.6486C20.0549 16.358 20.1087 16.0878 20.2192 15.8409L20.2208 15.8373C20.3366 15.5926 20.4982 15.3826 20.7045 15.2086C20.9106 15.0347 21.1557 14.9019 21.4366 14.8083L21.4378 14.8079ZM8.98975 14.764H10.6633V19.8285H13.2392V21.4147H8.98975V14.764ZM9.35357 15.1278V21.0509H12.8754V20.1923H10.2995V15.1278H9.35357ZM14.531 14.764H18.8242V16.263H17.5144V19.9158H18.8242V21.4147H14.531V19.9158H15.8408V16.263H14.531V14.764ZM14.8949 15.1278V15.8992H16.2046V20.2796H14.8949V21.0509H18.4603V20.2796H17.1506V15.8992H18.4603V15.1278H14.8949ZM25.6136 14.764H30.6053V16.3503H28.9462V21.4147H27.2726V16.3503H25.6136V14.764ZM25.9774 15.1278V15.9865H27.6365V21.0509H28.5824V15.9865H30.2415V15.1278H25.9774Z" fill="#B0C0F0"/>
    <path d="M26.8965 9.48776V2.13281L32.4449 9.48776H26.8965Z" fill="#B0C0F0"/>
</svg>
