<svg width="51" height="51" viewBox="0 0 51 51" fill="none" xmlns="http://www.w3.org/2000/svg">
<g filter="url(#filter0_dd)">
<rect x="7" y="7" width="36" height="36" rx="18" fill="white"/>
<rect x="7" y="7" width="36" height="36" rx="18" fill="url(#paint0_linear)" fill-opacity="0.4" style="mix-blend-mode:soft-light"/>
<rect x="7.25" y="7.25" width="35.5" height="35.5" rx="17.75" stroke="white" stroke-opacity="0.4" stroke-width="0.5"/>
</g>
<path d="M26.0774 26.076C24.6919 27.4604 23.0866 28.7853 22.452 28.1509C21.5444 27.2434 20.9842 26.4523 18.9816 28.0616C16.9798 29.67 18.5177 30.7429 19.3973 31.6215C20.4126 32.6366 24.1973 31.6758 27.9383 27.9365C31.6783 24.1963 32.6367 20.4124 31.6205 19.3972C30.7409 18.5169 29.6731 16.9802 28.0643 18.9816C26.4547 20.9829 27.245 21.543 28.1544 22.4513C28.7864 23.0858 27.4621 24.6907 26.0774 26.076Z" fill="#C0BDCB"/>
<defs>
<filter id="filter0_dd" x="0" y="0" width="51" height="51" filterUnits="userSpaceOnUse" color-interpolation-filters="sRGB">
<feFlood flood-opacity="0" result="BackgroundImageFix"/>
<feColorMatrix in="SourceAlpha" type="matrix" values="0 0 0 0 0 0 0 0 0 0 0 0 0 0 0 0 0 0 127 0"/>
<feOffset dx="3" dy="3"/>
<feGaussianBlur stdDeviation="2.5"/>
<feColorMatrix type="matrix" values="0 0 0 0 0.67451 0 0 0 0 0.666667 0 0 0 0 0.713726 0 0 0 0.6 0"/>
<feBlend mode="normal" in2="BackgroundImageFix" result="effect1_dropShadow"/>
<feColorMatrix in="SourceAlpha" type="matrix" values="0 0 0 0 0 0 0 0 0 0 0 0 0 0 0 0 0 0 127 0"/>
<feOffset dx="-2" dy="-2"/>
<feGaussianBlur stdDeviation="2.5"/>
<feColorMatrix type="matrix" values="0 0 0 0 0.929412 0 0 0 0 0.937255 0 0 0 0 0.972549 0 0 0 0.5 0"/>
<feBlend mode="normal" in2="effect1_dropShadow" result="effect2_dropShadow"/>
<feBlend mode="normal" in="SourceGraphic" in2="effect2_dropShadow" result="shape"/>
</filter>
<linearGradient id="paint0_linear" x1="-8.12573" y1="25.0018" x2="24.5312" y2="58.0837" gradientUnits="userSpaceOnUse">
<stop/>
<stop offset="1" stop-color="white"/>
</linearGradient>
</defs>
</svg>
